  0
SECTION
  2
HEADER
  9
$ACADVER
  1
AC1014
  9
$HANDSEED
  5
FFFF
  9
$MEASUREMENT
 70
     1
  0
ENDSEC
  0
SECTION
  2
TABLES
  0
TABLE
  2
VPORT
  5
8
330
0
100
AcDbSymbolTable
 70
     4
  0
VPORT
  5
2E
330
8
100
AcDbSymbolTableRecord
100
AcDbViewportTableRecord
  2
*ACTIVE
 70
     0
 10
0.0
 20
0.0
 11
1.0
 21
1.0
 12
210.0
 22
148.5
 13
0.0
 23
0.0
 14
10.0
 24
10.0
 15
10.0
 25
10.0
 16
0.0
 26
0.0
 36
1.0
 17
0.0
 27
0.0
 37
0.0
 40
341.0
 41
1.24
 42
50.0
 43
0.0
 44
0.0
 50
0.0
 51
0.0
 71
     0
 72
   100
 73
     1
 74
     3
 75
     0
 76
     0
 77
     0
 78
     0
  0
ENDTAB
  0
TABLE
  2
LTYPE
  5
5
330
0
100
AcDbSymbolTable
 70
     1
  0
LTYPE
  5
14
330
5
100
AcDbSymbolTableRecord
100
AcDbLinetypeTableRecord
  2
BYBLOCK
 70
     0
  3

 72
    65
 73
     0
 40
0.0
  0
LTYPE
  5
15
330
5
100
AcDbSymbolTableRecord
100
AcDbLinetypeTableRecord
  2
BYLAYER
 70
     0
  3

 72
    65
 73
     0
 40
0.0
  0
LTYPE
  5
16
330
5
100
AcDbSymbolTableRecord
100
AcDbLinetypeTableRecord
  2
CONTINUOUS
 70
     0
  3
Solid line
 72
    65
 73
     0
 40
0.0
  0
ENDTAB
  0
TABLE
  2
LAYER
  5
2
100
AcDbSymbolTable
 70
1
  0
LAYER
  5
50
100
AcDbSymbolTableRecord
100
AcDbLayerTableRecord
  2
0
 70
0
  6
CONTINUOUS
  0
ENDTAB
  0
TABLE
  2
STYLE
  5
3
330
0
100
AcDbSymbolTable
 70
     1
  0
STYLE
  5
11
330
3
100
AcDbSymbolTableRecord
100
AcDbTextStyleTableRecord
  2
STANDARD
 70
     0
 40
0.0
 41
1.0
 50
0.0
 71
     0
 42
2.5
  3
txt
  4

  0
ENDTAB
  0
TABLE
  2
VIEW
  5
6
330
0
100
AcDbSymbolTable
 70
     0
  0
ENDTAB
  0
TABLE
  2
UCS
  5
7
330
0
100
AcDbSymbolTable
 70
     0
  0
ENDTAB
  0
TABLE
  2
APPID
  5
9
330
0
100
AcDbSymbolTable
 70
     2
  0
APPID
  5
12
330
9
100
AcDbSymbolTableRecord
100
AcDbRegAppTableRecord
  2
ACAD
 70
     0
  0
ENDTAB
  0
TABLE
  2
DIMSTYLE
  5
A
330
0
100
AcDbSymbolTable
 70
     1
  0
DIMSTYLE
105
27
330
A
100
AcDbSymbolTableRecord
100
AcDbDimStyleTableRecord
  2
ISO-25
 70
     0
  3

  4

  5

  6

  7

 40
1.0
 41
2.5
 42
0.625
 43
3.75
 44
1.25
 45
0.0
 46
0.0
 47
0.0
 48
0.0
140
2.5
141
2.5
142
0.0
143
0.03937007874016
144
1.0
145
0.0
146
1.0
147
0.625
 71
     0
 72
     0
 73
     0
 74
     0
 75
     0
 76
     0
 77
     1
 78
     8
170
     0
171
     3
172
     1
173
     0
174
     0
175
     0
176
     0
177
     0
178
     0
270
     2
271
     2
272
     2
273
     2
274
     3
340
11
275
     0
280
     0
281
     0
282
     0
283
     0
284
     8
285
     0
286
     0
287
     3
288
     0
  0
ENDTAB
  0
TABLE
  2
BLOCK_RECORD
  5
1
330
0
100
AcDbSymbolTable
 70
     1
  0
BLOCK_RECORD
  5
1F
330
1
100
AcDbSymbolTableRecord
100
AcDbBlockTableRecord
  2
*MODEL_SPACE
  0
BLOCK_RECORD
  5
1B
330
1
100
AcDbSymbolTableRecord
100
AcDbBlockTableRecord
  2
*PAPER_SPACE
  0
ENDTAB
  0
ENDSEC
  0
SECTION
  2
BLOCKS
  0
BLOCK
  5
20
330
1F
100
AcDbEntity
  8
0
100
AcDbBlockBegin
  2
*MODEL_SPACE
 70
     0
 10
0.0
 20
0.0
 30
0.0
  3
*MODEL_SPACE
  1

  0
ENDBLK
  5
21
330
1F
100
AcDbEntity
  8
0
100
AcDbBlockEnd
  0
BLOCK
  5
1C
330
1B
100
AcDbEntity
 67
     1
  8
0
100
AcDbBlockBegin
  2
*PAPER_SPACE
  1

  0
ENDBLK
  5
1D
330
1B
100
AcDbEntity
 67
     1
  8
0
100
AcDbBlockEnd
  0
ENDSEC
  0
SECTION
  2
ENTITIES
  0
SPLINE
  5
100
100
AcDbEntity
  8
0
 62
7
100
AcDbSpline
 70
8
 71
3
 72
8
 73
4
 74
0
 40
0
 40
0
 40
0
 40
0
 40
1
 40
1
 40
1
 40
1
 10
3.100429
 20
0.565860
 30
0.0
 10
3.019525
 20
0.582415
 30
0.0
 10
3.018306
 20
0.583191
 30
0.0
 10
2.980625
 20
0.642096
 30
0.0
  0
SPLINE
  5
101
100
AcDbEntity
  8
0
 62
7
100
AcDbSpline
 70
8
 71
3
 72
8
 73
4
 74
0
 40
0
 40
0
 40
0
 40
0
 40
1
 40
1
 40
1
 40
1
 10
2.980625
 20
0.642096
 30
0.0
 10
2.959688
 20
0.674826
 30
0.0
 10
2.939375
 20
0.710343
 30
0.0
 10
2.935487
 20
0.721021
 30
0.0
  0
SPLINE
  5
102
100
AcDbEntity
  8
0
 62
7
100
AcDbSpline
 70
8
 71
3
 72
8
 73
4
 74
0
 40
0
 40
0
 40
0
 40
0
 40
1
 40
1
 40
1
 40
1
 10
2.935487
 20
0.721021
 30
0.0
 10
2.925362
 20
0.748824
 30
0.0
 10
2.888032
 20
0.791584
 30
0.0
 10
2.661588
 20
1.034763
 30
0.0
  0
SPLINE
  5
103
100
AcDbEntity
  8
0
 62
7
100
AcDbSpline
 70
8
 71
3
 72
8
 73
4
 74
0
 40
0
 40
0
 40
0
 40
0
 40
1
 40
1
 40
1
 40
1
 10
2.661588
 20
1.034763
 30
0.0
 10
2.336067
 20
1.384342
 30
0.0
 10
2.305197
 20
1.412980
 30
0.0
 10
2.198310
 20
1.464542
 30
0.0
  0
SPLINE
  5
104
100
AcDbEntity
  8
0
 62
7
100
AcDbSpline
 70
8
 71
3
 72
8
 73
4
 74
0
 40
0
 40
0
 40
0
 40
0
 40
1
 40
1
 40
1
 40
1
 10
2.198310
 20
1.464542
 30
0.0
 10
2.146652
 20
1.489461
 30
0.0
 10
2.090637
 20
1.513077
 30
0.0
 10
2.073832
 20
1.517022
 30
0.0
  0
SPLINE
  5
105
100
AcDbEntity
  8
0
 62
7
100
AcDbSpline
 70
8
 71
3
 72
8
 73
4
 74
0
 40
0
 40
0
 40
0
 40
0
 40
1
 40
1
 40
1
 40
1
 10
2.073832
 20
1.517022
 30
0.0
 10
2.057026
 20
1.520967
 30
0.0
 10
2.043276
 20
1.531065
 30
0.0
 10
2.043276
 20
1.539463
 30
0.0
  0
SPLINE
  5
106
100
AcDbEntity
  8
0
 62
7
100
AcDbSpline
 70
8
 71
3
 72
8
 73
4
 74
0
 40
0
 40
0
 40
0
 40
0
 40
1
 40
1
 40
1
 40
1
 10
2.043276
 20
1.539463
 30
0.0
 10
2.043276
 20
1.547860
 30
0.0
 10
2.102489
 20
1.617059
 30
0.0
 10
2.174859
 20
1.693238
 30
0.0
  0
SPLINE
  5
107
100
AcDbEntity
  8
0
 62
7
100
AcDbSpline
 70
8
 71
3
 72
8
 73
4
 74
0
 40
0
 40
0
 40
0
 40
0
 40
1
 40
1
 40
1
 40
1
 10
2.174859
 20
1.693238
 30
0.0
 10
2.328764
 20
1.855242
 30
0.0
 10
2.360273
 20
1.909027
 30
0.0
 10
2.351154
 20
1.994174
 30
0.0
  0
SPLINE
  5
108
100
AcDbEntity
  8
0
 62
7
100
AcDbSpline
 70
8
 71
3
 72
8
 73
4
 74
0
 40
0
 40
0
 40
0
 40
0
 40
1
 40
1
 40
1
 40
1
 10
2.351154
 20
1.994174
 30
0.0
 10
2.345003
 20
2.051614
 30
0.0
 10
2.307703
 20
2.150310
 30
0.0
 10
2.287404
 20
2.162855
 30
0.0
  0
SPLINE
  5
109
100
AcDbEntity
  8
0
 62
7
100
AcDbSpline
 70
8
 71
3
 72
8
 73
4
 74
0
 40
0
 40
0
 40
0
 40
0
 40
1
 40
1
 40
1
 40
1
 10
2.287404
 20
2.162855
 30
0.0
 10
2.272449
 20
2.172098
 30
0.0
 10
2.273116
 20
2.168492
 30
0.0
 10
2.303690
 20
2.074832
 30
0.0
  0
SPLINE
  5
10a
100
AcDbEntity
  8
0
 62
7
100
AcDbSpline
 70
8
 71
3
 72
8
 73
4
 74
0
 40
0
 40
0
 40
0
 40
0
 40
1
 40
1
 40
1
 40
1
 10
2.303690
 20
2.074832
 30
0.0
 10
2.326114
 20
2.006138
 30
0.0
 10
2.328825
 20
1.984829
 30
0.0
 10
2.319458
 20
1.950903
 30
0.0
  0
SPLINE
  5
10b
100
AcDbEntity
  8
0
 62
7
100
AcDbSpline
 70
8
 71
3
 72
8
 73
4
 74
0
 40
0
 40
0
 40
0
 40
0
 40
1
 40
1
 40
1
 40
1
 10
2.319458
 20
1.950903
 30
0.0
 10
2.307019
 20
1.905852
 30
0.0
 10
2.269670
 20
1.865980
 30
0.0
 10
2.209943
 20
1.833990
 30
0.0
  0
SPLINE
  5
10c
100
AcDbEntity
  8
0
 62
7
100
AcDbSpline
 70
8
 71
3
 72
8
 73
4
 74
0
 40
0
 40
0
 40
0
 40
0
 40
1
 40
1
 40
1
 40
1
 10
2.209943
 20
1.833990
 30
0.0
 10
2.188554
 20
1.822533
 30
0.0
 10
2.163389
 20
1.806798
 30
0.0
 10
2.154020
 20
1.799021
 30
0.0
  0
SPLINE
  5
10d
100
AcDbEntity
  8
0
 62
7
100
AcDbSpline
 70
8
 71
3
 72
8
 73
4
 74
0
 40
0
 40
0
 40
0
 40
0
 40
1
 40
1
 40
1
 40
1
 10
2.154020
 20
1.799021
 30
0.0
 10
2.129366
 20
1.778557
 30
0.0
 10
1.939582
 20
1.534829
 30
0.0
 10
1.944603
 20
1.530080
 30
0.0
  0
SPLINE
  5
10e
100
AcDbEntity
  8
0
 62
7
100
AcDbSpline
 70
8
 71
3
 72
8
 73
4
 74
0
 40
0
 40
0
 40
0
 40
0
 40
1
 40
1
 40
1
 40
1
 10
1.944603
 20
1.530080
 30
0.0
 10
1.946929
 20
1.527880
 30
0.0
 10
2.006332
 20
1.500207
 30
0.0
 10
2.076610
 20
1.468584
 30
0.0
  0
SPLINE
  5
10f
100
AcDbEntity
  8
0
 62
7
100
AcDbSpline
 70
8
 71
3
 72
8
 73
4
 74
0
 40
0
 40
0
 40
0
 40
0
 40
1
 40
1
 40
1
 40
1
 10
2.076610
 20
1.468584
 30
0.0
 10
2.146887
 20
1.436961
 30
0.0
 10
2.231887
 20
1.390724
 30
0.0
 10
2.265499
 20
1.365835
 30
0.0
  0
SPLINE
  5
110
100
AcDbEntity
  8
0
 62
7
100
AcDbSpline
 70
8
 71
3
 72
8
 73
4
 74
0
 40
0
 40
0
 40
0
 40
0
 40
1
 40
1
 40
1
 40
1
 10
2.265499
 20
1.365835
 30
0.0
 10
2.326631
 20
1.320567
 30
0.0
 10
2.664993
 20
0.981446
 30
0.0
 10
2.665323
 20
0.965114
 30
0.0
  0
SPLINE
  5
111
100
AcDbEntity
  8
0
 62
7
100
AcDbSpline
 70
8
 71
3
 72
8
 73
4
 74
0
 40
0
 40
0
 40
0
 40
0
 40
1
 40
1
 40
1
 40
1
 10
2.665323
 20
0.965114
 30
0.0
 10
2.665423
 20
0.960352
 30
0.0
 10
2.621749
 20
0.985588
 30
0.0
 10
2.568276
 20
1.021194
 30
0.0
  0
SPLINE
  5
112
100
AcDbEntity
  8
0
 62
7
100
AcDbSpline
 70
8
 71
3
 72
8
 73
4
 74
0
 40
0
 40
0
 40
0
 40
0
 40
1
 40
1
 40
1
 40
1
 10
2.568276
 20
1.021194
 30
0.0
 10
2.469356
 20
1.087063
 30
0.0
 10
2.418974
 20
1.113585
 30
0.0
 10
2.309943
 20
1.157183
 30
0.0
  0
SPLINE
  5
113
100
AcDbEntity
  8
0
 62
7
100
AcDbSpline
 70
8
 71
3
 72
8
 73
4
 74
0
 40
0
 40
0
 40
0
 40
0
 40
1
 40
1
 40
1
 40
1
 10
2.309943
 20
1.157183
 30
0.0
 10
2.276332
 20
1.170623
 30
0.0
 10
2.238832
 20
1.185686
 30
0.0
 10
2.226610
 20
1.190657
 30
0.0
  0
SPLINE
  5
114
100
AcDbEntity
  8
0
 62
7
100
AcDbSpline
 70
8
 71
3
 72
8
 73
4
 74
0
 40
0
 40
0
 40
0
 40
0
 40
1
 40
1
 40
1
 40
1
 10
2.226610
 20
1.190657
 30
0.0
 10
2.214387
 20
1.195627
 30
0.0
 10
2.191887
 20
1.202735
 30
0.0
 10
2.176610
 20
1.206452
 30
0.0
  0
SPLINE
  5
115
100
AcDbEntity
  8
0
 62
7
100
AcDbSpline
 70
8
 71
3
 72
8
 73
4
 74
0
 40
0
 40
0
 40
0
 40
0
 40
1
 40
1
 40
1
 40
1
 10
2.176610
 20
1.206452
 30
0.0
 10
2.161332
 20
1.210170
 30
0.0
 10
2.121332
 20
1.221028
 30
0.0
 10
2.087721
 20
1.230583
 30
0.0
  0
SPLINE
  5
116
100
AcDbEntity
  8
0
 62
7
100
AcDbSpline
 70
8
 71
3
 72
8
 73
4
 74
0
 40
0
 40
0
 40
0
 40
0
 40
1
 40
1
 40
1
 40
1
 10
2.087721
 20
1.230583
 30
0.0
 10
2.006631
 20
1.253633
 30
0.0
 10
1.894299
 20
1.276674
 30
0.0
 10
1.766616
 20
1.296444
 30
0.0
  0
SPLINE
  5
117
100
AcDbEntity
  8
0
 62
7
100
AcDbSpline
 70
8
 71
3
 72
8
 73
4
 74
0
 40
0
 40
0
 40
0
 40
0
 40
1
 40
1
 40
1
 40
1
 10
1.766616
 20
1.296444
 30
0.0
 10
1.682917
 20
1.309404
 30
0.0
 10
1.533443
 20
1.312239
 30
0.0
 10
1.013902
 20
1.310721
 30
0.0
  0
SPLINE
  5
118
100
AcDbEntity
  8
0
 62
7
100
AcDbSpline
 70
8
 71
3
 72
8
 73
4
 74
0
 40
0
 40
0
 40
0
 40
0
 40
1
 40
1
 40
1
 40
1
 10
1.013902
 20
1.310721
 30
0.0
 10
0.657351
 20
1.309680
 30
0.0
 10
0.363692
 20
1.310940
 30
0.0
 10
0.361328
 20
1.313521
 30
0.0
  0
SPLINE
  5
119
100
AcDbEntity
  8
0
 62
7
100
AcDbSpline
 70
8
 71
3
 72
8
 73
4
 74
0
 40
0
 40
0
 40
0
 40
0
 40
1
 40
1
 40
1
 40
1
 10
0.361328
 20
1.313521
 30
0.0
 10
0.357128
 20
1.318106
 30
0.0
 10
0.662108
 20
1.728359
 30
0.0
 10
0.737786
 20
1.819926
 30
0.0
  0
SPLINE
  5
11a
100
AcDbEntity
  8
0
 62
7
100
AcDbSpline
 70
8
 71
3
 72
8
 73
4
 74
0
 40
0
 40
0
 40
0
 40
0
 40
1
 40
1
 40
1
 40
1
 10
0.737786
 20
1.819926
 30
0.0
 10
0.833276
 20
1.935465
 30
0.0
 10
1.273989
 20
2.147274
 30
0.0
 10
1.843276
 20
2.351231
 30
0.0
  0
SPLINE
  5
11b
100
AcDbEntity
  8
0
 62
7
100
AcDbSpline
 70
8
 71
3
 72
8
 73
4
 74
0
 40
0
 40
0
 40
0
 40
0
 40
1
 40
1
 40
1
 40
1
 10
1.843276
 20
2.351231
 30
0.0
 10
2.165540
 20
2.466687
 30
0.0
 10
2.161443
 20
2.470734
 30
0.0
 10
1.821054
 20
2.373180
 30
0.0
  0
SPLINE
  5
11c
100
AcDbEntity
  8
0
 62
7
100
AcDbSpline
 70
8
 71
3
 72
8
 73
4
 74
0
 40
0
 40
0
 40
0
 40
0
 40
1
 40
1
 40
1
 40
1
 10
1.821054
 20
2.373180
 30
0.0
 10
1.548911
 20
2.295186
 30
0.0
 10
1.373484
 20
2.231973
 30
0.0
 10
1.159128
 20
2.134663
 30
0.0
  0
SPLINE
  5
11d
100
AcDbEntity
  8
0
 62
7
100
AcDbSpline
 70
8
 71
3
 72
8
 73
4
 74
0
 40
0
 40
0
 40
0
 40
0
 40
1
 40
1
 40
1
 40
1
 10
1.159128
 20
2.134663
 30
0.0
 10
0.877959
 20
2.007022
 30
0.0
 10
0.885453
 20
2.009954
 30
0.0
 10
0.897722
 20
2.032399
 30
0.0
  0
SPLINE
  5
11e
100
AcDbEntity
  8
0
 62
7
100
AcDbSpline
 70
8
 71
3
 72
8
 73
4
 74
0
 40
0
 40
0
 40
0
 40
0
 40
1
 40
1
 40
1
 40
1
 10
0.897722
 20
2.032399
 30
0.0
 10
0.903479
 20
2.042931
 30
0.0
 10
1.012086
 20
2.181549
 30
0.0
 10
1.139071
 20
2.340437
 30
0.0
  0
SPLINE
  5
11f
100
AcDbEntity
  8
0
 62
7
100
AcDbSpline
 70
8
 71
3
 72
8
 73
4
 74
0
 40
0
 40
0
 40
0
 40
0
 40
1
 40
1
 40
1
 40
1
 10
1.139071
 20
2.340437
 30
0.0
 10
1.417208
 20
2.688456
 30
0.0
 10
1.646902
 20
2.925709
 30
0.0
 10
1.809943
 20
3.033388
 30
0.0
  0
SPLINE
  5
120
100
AcDbEntity
  8
0
 62
7
100
AcDbSpline
 70
8
 71
3
 72
8
 73
4
 74
0
 40
0
 40
0
 40
0
 40
0
 40
1
 40
1
 40
1
 40
1
 10
1.809943
 20
3.033388
 30
0.0
 10
1.897436
 20
3.091173
 30
0.0
 10
2.120026
 20
3.206604
 30
0.0
 10
2.285926
 20
3.280226
 30
0.0
  0
SPLINE
  5
121
100
AcDbEntity
  8
0
 62
7
100
AcDbSpline
 70
8
 71
3
 72
8
 73
4
 74
0
 40
0
 40
0
 40
0
 40
0
 40
1
 40
1
 40
1
 40
1
 10
2.285926
 20
3.280226
 30
0.0
 10
2.319855
 20
3.295283
 30
0.0
 10
2.299000
 20
3.296608
 30
0.0
 10
2.041481
 20
3.295757
 30
0.0
  0
SPLINE
  5
122
100
AcDbEntity
  8
0
 62
7
100
AcDbSpline
 70
8
 71
3
 72
8
 73
4
 74
0
 40
0
 40
0
 40
0
 40
0
 40
1
 40
1
 40
1
 40
1
 10
2.041481
 20
3.295757
 30
0.0
 10
1.712587
 20
3.294671
 30
0.0
 10
1.658274
 20
3.299879
 30
0.0
 10
1.629636
 20
3.335247
 30
0.0
  0
SPLINE
  5
123
100
AcDbEntity
  8
0
 62
7
100
AcDbSpline
 70
8
 71
3
 72
8
 73
4
 74
0
 40
0
 40
0
 40
0
 40
0
 40
1
 40
1
 40
1
 40
1
 10
1.629636
 20
3.335247
 30
0.0
 10
1.618403
 20
3.349118
 30
0.0
 10
1.611003
 20
3.365961
 30
0.0
 10
1.613192
 20
3.372675
 30
0.0
  0
SPLINE
  5
124
100
AcDbEntity
  8
0
 62
7
100
AcDbSpline
 70
8
 71
3
 72
8
 73
4
 74
0
 40
0
 40
0
 40
0
 40
0
 40
1
 40
1
 40
1
 40
1
 10
1.613192
 20
3.372675
 30
0.0
 10
1.615381
 20
3.379389
 30
0.0
 10
1.644035
 20
3.403727
 30
0.0
 10
1.676869
 20
3.426760
 30
0.0
  0
SPLINE
  5
125
100
AcDbEntity
  8
0
 62
7
100
AcDbSpline
 70
8
 71
3
 72
8
 73
4
 74
0
 40
0
 40
0
 40
0
 40
0
 40
1
 40
1
 40
1
 40
1
 10
1.676869
 20
3.426760
 30
0.0
 10
1.764894
 20
3.488510
 30
0.0
 10
1.787040
 20
3.509458
 30
0.0
 10
1.864999
 20
3.604710
 30
0.0
  0
SPLINE
  5
126
100
AcDbEntity
  8
0
 62
7
100
AcDbSpline
 70
8
 71
3
 72
8
 73
4
 74
0
 40
0
 40
0
 40
0
 40
0
 40
1
 40
1
 40
1
 40
1
 10
1.864999
 20
3.604710
 30
0.0
 10
1.903934
 20
3.652283
 30
0.0
 10
1.961087
 20
3.709783
 30
0.0
 10
1.992006
 20
3.732488
 30
0.0
  0
SPLINE
  5
127
100
AcDbEntity
  8
0
 62
7
100
AcDbSpline
 70
8
 71
3
 72
8
 73
4
 74
0
 40
0
 40
0
 40
0
 40
0
 40
1
 40
1
 40
1
 40
1
 10
1.992006
 20
3.732488
 30
0.0
 10
2.055407
 20
3.779048
 30
0.0
 10
2.021263
 20
3.776206
 30
0.0
 10
2.376610
 20
3.764492
 30
0.0
  0
SPLINE
  5
128
100
AcDbEntity
  8
0
 62
7
100
AcDbSpline
 70
8
 71
3
 72
8
 73
4
 74
0
 40
0
 40
0
 40
0
 40
0
 40
1
 40
1
 40
1
 40
1
 10
2.376610
 20
3.764492
 30
0.0
 10
2.483554
 20
3.760967
 30
0.0
 10
2.631210
 20
3.752101
 30
0.0
 10
2.704733
 20
3.744790
 30
0.0
  0
SPLINE
  5
129
100
AcDbEntity
  8
0
 62
7
100
AcDbSpline
 70
8
 71
3
 72
8
 73
4
 74
0
 40
0
 40
0
 40
0
 40
0
 40
1
 40
1
 40
1
 40
1
 10
2.704733
 20
3.744790
 30
0.0
 10
2.802220
 20
3.735096
 30
0.0
 10
2.844578
 20
3.734797
 30
0.0
 10
2.861186
 20
3.743685
 30
0.0
  0
SPLINE
  5
12a
100
AcDbEntity
  8
0
 62
7
100
AcDbSpline
 70
8
 71
3
 72
8
 73
4
 74
0
 40
0
 40
0
 40
0
 40
0
 40
1
 40
1
 40
1
 40
1
 10
2.861186
 20
3.743685
 30
0.0
 10
2.873712
 20
3.750389
 30
0.0
 10
2.922358
 20
3.769133
 30
0.0
 10
2.969289
 20
3.785340
 30
0.0
  0
SPLINE
  5
12b
100
AcDbEntity
  8
0
 62
7
100
AcDbSpline
 70
8
 71
3
 72
8
 73
4
 74
0
 40
0
 40
0
 40
0
 40
0
 40
1
 40
1
 40
1
 40
1
 10
2.969289
 20
3.785340
 30
0.0
 10
3.049331
 20
3.812981
 30
0.0
 10
3.059948
 20
3.814075
 30
0.0
 10
3.140614
 20
3.803002
 30
0.0
  0
SPLINE
  5
12c
100
AcDbEntity
  8
0
 62
7
100
AcDbSpline
 70
8
 71
3
 72
8
 73
4
 74
0
 40
0
 40
0
 40
0
 40
0
 40
1
 40
1
 40
1
 40
1
 10
3.140614
 20
3.803002
 30
0.0
 10
3.187912
 20
3.796509
 30
0.0
 10
3.309110
 20
3.763449
 30
0.0
 10
3.409943
 20
3.729536
 30
0.0
  0
SPLINE
  5
12d
100
AcDbEntity
  8
0
 62
7
100
AcDbSpline
 70
8
 71
3
 72
8
 73
4
 74
0
 40
0
 40
0
 40
0
 40
0
 40
1
 40
1
 40
1
 40
1
 10
3.409943
 20
3.729536
 30
0.0
 10
3.800997
 20
3.598012
 30
0.0
 10
3.859596
 20
3.580941
 30
0.0
 10
4.198832
 20
3.499708
 30
0.0
  0
SPLINE
  5
12e
100
AcDbEntity
  8
0
 62
7
100
AcDbSpline
 70
8
 71
3
 72
8
 73
4
 74
0
 40
0
 40
0
 40
0
 40
0
 40
1
 40
1
 40
1
 40
1
 10
4.198832
 20
3.499708
 30
0.0
 10
4.302571
 20
3.474867
 30
0.0
 10
4.461384
 20
3.419162
 30
0.0
 10
4.498972
 20
3.394431
 30
0.0
  0
SPLINE
  5
12f
100
AcDbEntity
  8
0
 62
7
100
AcDbSpline
 70
8
 71
3
 72
8
 73
4
 74
0
 40
0
 40
0
 40
0
 40
0
 40
1
 40
1
 40
1
 40
1
 10
4.498972
 20
3.394431
 30
0.0
 10
4.533102
 20
3.371976
 30
0.0
 10
4.541191
 20
3.357196
 30
0.0
 10
4.563402
 20
3.276697
 30
0.0
  0
SPLINE
  5
130
100
AcDbEntity
  8
0
 62
7
100
AcDbSpline
 70
8
 71
3
 72
8
 73
4
 74
0
 40
0
 40
0
 40
0
 40
0
 40
1
 40
1
 40
1
 40
1
 10
4.563402
 20
3.276697
 30
0.0
 10
4.577373
 20
3.226066
 30
0.0
 10
4.592356
 20
3.159802
 30
0.0
 10
4.596698
 20
3.129443
 30
0.0
  0
SPLINE
  5
131
100
AcDbEntity
  8
0
 62
7
100
AcDbSpline
 70
8
 71
3
 72
8
 73
4
 74
0
 40
0
 40
0
 40
0
 40
0
 40
1
 40
1
 40
1
 40
1
 10
4.596698
 20
3.129443
 30
0.0
 10
4.604594
 20
3.074245
 30
0.0
 10
4.604594
 20
3.074245
 30
0.0
 10
4.660046
 20
3.061049
 30
0.0
  0
SPLINE
  5
132
100
AcDbEntity
  8
0
 62
7
100
AcDbSpline
 70
8
 71
3
 72
8
 73
4
 74
0
 40
0
 40
0
 40
0
 40
0
 40
1
 40
1
 40
1
 40
1
 10
4.660046
 20
3.061049
 30
0.0
 10
4.797423
 20
3.028359
 30
0.0
 10
4.837800
 20
3.006751
 30
0.0
 10
4.848392
 20
2.960258
 30
0.0
  0
SPLINE
  5
133
100
AcDbEntity
  8
0
 62
7
100
AcDbSpline
 70
8
 71
3
 72
8
 73
4
 74
0
 40
0
 40
0
 40
0
 40
0
 40
1
 40
1
 40
1
 40
1
 10
4.848392
 20
2.960258
 30
0.0
 10
4.860281
 20
2.908068
 30
0.0
 10
4.878516
 20
2.896570
 30
0.0
 10
4.982165
 20
2.875902
 30
0.0
  0
SPLINE
  5
134
100
AcDbEntity
  8
0
 62
7
100
AcDbSpline
 70
8
 71
3
 72
8
 73
4
 74
0
 40
0
 40
0
 40
0
 40
0
 40
1
 40
1
 40
1
 40
1
 10
4.982165
 20
2.875902
 30
0.0
 10
5.124456
 20
2.847529
 30
0.0
 10
5.257654
 20
2.779803
 30
0.0
 10
5.379387
 20
2.673929
 30
0.0
  0
SPLINE
  5
135
100
AcDbEntity
  8
0
 62
7
100
AcDbSpline
 70
8
 71
3
 72
8
 73
4
 74
0
 40
0
 40
0
 40
0
 40
0
 40
1
 40
1
 40
1
 40
1
 10
5.379387
 20
2.673929
 30
0.0
 10
5.476610
 20
2.589373
 30
0.0
 10
5.476610
 20
2.589373
 30
0.0
 10
5.476610
 20
2.472770
 30
0.0
  0
SPLINE
  5
136
100
AcDbEntity
  8
0
 62
7
100
AcDbSpline
 70
8
 71
3
 72
8
 73
4
 74
0
 40
0
 40
0
 40
0
 40
0
 40
1
 40
1
 40
1
 40
1
 10
5.476610
 20
2.472770
 30
0.0
 10
5.476610
 20
2.221038
 30
0.0
 10
5.416301
 20
2.082616
 30
0.0
 10
5.295896
 20
2.057991
 30
0.0
  0
SPLINE
  5
137
100
AcDbEntity
  8
0
 62
7
100
AcDbSpline
 70
8
 71
3
 72
8
 73
4
 74
0
 40
0
 40
0
 40
0
 40
0
 40
1
 40
1
 40
1
 40
1
 10
5.295896
 20
2.057991
 30
0.0
 10
5.262736
 20
2.051209
 30
0.0
 10
5.258079
 20
2.044363
 30
0.0
 10
5.230756
 20
1.962229
 30
0.0
  0
SPLINE
  5
138
100
AcDbEntity
  8
0
 62
7
100
AcDbSpline
 70
8
 71
3
 72
8
 73
4
 74
0
 40
0
 40
0
 40
0
 40
0
 40
1
 40
1
 40
1
 40
1
 10
5.230756
 20
1.962229
 30
0.0
 10
5.194899
 20
1.854440
 30
0.0
 10
5.136186
 20
1.663048
 30
0.0
 10
5.125795
 20
1.620076
 30
0.0
  0
SPLINE
  5
139
100
AcDbEntity
  8
0
 62
7
100
AcDbSpline
 70
8
 71
3
 72
8
 73
4
 74
0
 40
0
 40
0
 40
0
 40
0
 40
1
 40
1
 40
1
 40
1
 10
5.125795
 20
1.620076
 30
0.0
 10
5.116990
 20
1.583664
 30
0.0
 10
5.021995
 20
1.484263
 30
0.0
 10
4.890047
 20
1.373395
 30
0.0
  0
SPLINE
  5
13a
100
AcDbEntity
  8
0
 62
7
100
AcDbSpline
 70
8
 71
3
 72
8
 73
4
 74
0
 40
0
 40
0
 40
0
 40
0
 40
1
 40
1
 40
1
 40
1
 10
4.890047
 20
1.373395
 30
0.0
 10
4.788228
 20
1.287842
 30
0.0
 10
4.693247
 20
1.236022
 30
0.0
 10
4.673835
 20
1.255434
 30
0.0
  0
SPLINE
  5
13b
100
AcDbEntity
  8
0
 62
7
100
AcDbSpline
 70
8
 71
3
 72
8
 73
4
 74
0
 40
0
 40
0
 40
0
 40
0
 40
1
 40
1
 40
1
 40
1
 10
4.673835
 20
1.255434
 30
0.0
 10
4.665677
 20
1.263592
 30
0.0
 10
4.665558
 20
1.271739
 30
0.0
 10
4.673451
 20
1.281633
 30
0.0
  0
SPLINE
  5
13c
100
AcDbEntity
  8
0
 62
7
100
AcDbSpline
 70
8
 71
3
 72
8
 73
4
 74
0
 40
0
 40
0
 40
0
 40
0
 40
1
 40
1
 40
1
 40
1
 10
4.673451
 20
1.281633
 30
0.0
 10
4.691058
 20
1.303705
 30
0.0
 10
4.761696
 20
1.490780
 30
0.0
 10
4.770125
 20
1.537660
 30
0.0
  0
SPLINE
  5
13d
100
AcDbEntity
  8
0
 62
7
100
AcDbSpline
 70
8
 71
3
 72
8
 73
4
 74
0
 40
0
 40
0
 40
0
 40
0
 40
1
 40
1
 40
1
 40
1
 10
4.770125
 20
1.537660
 30
0.0
 10
4.774245
 20
1.560576
 30
0.0
 10
4.773431
 20
1.579326
 30
0.0
 10
4.768315
 20
1.579326
 30
0.0
  0
SPLINE
  5
13e
100
AcDbEntity
  8
0
 62
7
100
AcDbSpline
 70
8
 71
3
 72
8
 73
4
 74
0
 40
0
 40
0
 40
0
 40
0
 40
1
 40
1
 40
1
 40
1
 10
4.768315
 20
1.579326
 30
0.0
 10
4.754623
 20
1.579326
 30
0.0
 10
4.682980
 20
1.501661
 30
0.0
 10
4.561631
 20
1.355268
 30
0.0
  0
SPLINE
  5
13f
100
AcDbEntity
  8
0
 62
7
100
AcDbSpline
 70
8
 71
3
 72
8
 73
4
 74
0
 40
0
 40
0
 40
0
 40
0
 40
1
 40
1
 40
1
 40
1
 10
4.561631
 20
1.355268
 30
0.0
 10
4.428361
 20
1.194492
 30
0.0
 10
4.356746
 20
1.129084
 30
0.0
 10
4.271054
 20
1.089875
 30
0.0
  0
SPLINE
  5
140
100
AcDbEntity
  8
0
 62
7
100
AcDbSpline
 70
8
 71
3
 72
8
 73
4
 74
0
 40
0
 40
0
 40
0
 40
0
 40
1
 40
1
 40
1
 40
1
 10
4.271054
 20
1.089875
 30
0.0
 10
4.117448
 20
1.019591
 30
0.0
 10
4.108491
 20
1.038039
 30
0.0
 10
4.222225
 20
1.190437
 30
0.0
  0
SPLINE
  5
141
100
AcDbEntity
  8
0
 62
7
100
AcDbSpline
 70
8
 71
3
 72
8
 73
4
 74
0
 40
0
 40
0
 40
0
 40
0
 40
1
 40
1
 40
1
 40
1
 10
4.222225
 20
1.190437
 30
0.0
 10
4.319559
 20
1.320860
 30
0.0
 10
4.339255
 20
1.358756
 30
0.0
 10
4.359346
 20
1.454269
 30
0.0
  0
SPLINE
  5
142
100
AcDbEntity
  8
0
 62
7
100
AcDbSpline
 70
8
 71
3
 72
8
 73
4
 74
0
 40
0
 40
0
 40
0
 40
0
 40
1
 40
1
 40
1
 40
1
 10
4.359346
 20
1.454269
 30
0.0
 10
4.386157
 20
1.581725
 30
0.0
 10
4.405127
 20
2.026249
 30
0.0
 10
4.389495
 20
2.160735
 30
0.0
  0
SPLINE
  5
143
100
AcDbEntity
  8
0
 62
7
100
AcDbSpline
 70
8
 71
3
 72
8
 73
4
 74
0
 40
0
 40
0
 40
0
 40
0
 40
1
 40
1
 40
1
 40
1
 10
4.389495
 20
2.160735
 30
0.0
 10
4.368467
 20
2.341630
 30
0.0
 10
4.329951
 20
2.457790
 30
0.0
 10
4.273523
 20
2.510491
 30
0.0
  0
SPLINE
  5
144
100
AcDbEntity
  8
0
 62
7
100
AcDbSpline
 70
8
 71
3
 72
8
 73
4
 74
0
 40
0
 40
0
 40
0
 40
0
 40
1
 40
1
 40
1
 40
1
 10
4.273523
 20
2.510491
 30
0.0
 10
4.246102
 20
2.536101
 30
0.0
 10
4.246102
 20
2.536101
 30
0.0
 10
4.216868
 20
2.486217
 30
0.0
  0
SPLINE
  5
145
100
AcDbEntity
  8
0
 62
7
100
AcDbSpline
 70
8
 71
3
 72
8
 73
4
 74
0
 40
0
 40
0
 40
0
 40
0
 40
1
 40
1
 40
1
 40
1
 10
4.216868
 20
2.486217
 30
0.0
 10
4.172022
 20
2.409692
 30
0.0
 10
4.109535
 20
2.373408
 30
0.0
 10
4.067995
 20
2.399771
 30
0.0
  0
SPLINE
  5
146
100
AcDbEntity
  8
0
 62
7
100
AcDbSpline
 70
8
 71
3
 72
8
 73
4
 74
0
 40
0
 40
0
 40
0
 40
0
 40
1
 40
1
 40
1
 40
1
 10
4.067995
 20
2.399771
 30
0.0
 10
4.060201
 20
2.404717
 30
0.0
 10
4.042342
 20
2.455575
 30
0.0
 10
4.028307
 20
2.512790
 30
0.0
  0
SPLINE
  5
147
100
AcDbEntity
  8
0
 62
7
100
AcDbSpline
 70
8
 71
3
 72
8
 73
4
 74
0
 40
0
 40
0
 40
0
 40
0
 40
1
 40
1
 40
1
 40
1
 10
4.028307
 20
2.512790
 30
0.0
 10
4.002790
 20
2.616816
 30
0.0
 10
4.002790
 20
2.616816
 30
0.0
 10
3.975811
 20
2.568016
 30
0.0
  0
SPLINE
  5
148
100
AcDbEntity
  8
0
 62
7
100
AcDbSpline
 70
8
 71
3
 72
8
 73
4
 74
0
 40
0
 40
0
 40
0
 40
0
 40
1
 40
1
 40
1
 40
1
 10
3.975811
 20
2.568016
 30
0.0
 10
3.946160
 20
2.514383
 30
0.0
 10
3.874235
 20
2.458051
 30
0.0
 10
3.834668
 20
2.457473
 30
0.0
  0
SPLINE
  5
149
100
AcDbEntity
  8
0
 62
7
100
AcDbSpline
 70
8
 71
3
 72
8
 73
4
 74
0
 40
0
 40
0
 40
0
 40
0
 40
1
 40
1
 40
1
 40
1
 10
3.834668
 20
2.457473
 30
0.0
 10
3.796808
 20
2.456920
 30
0.0
 10
3.784553
 20
2.502795
 30
0.0
 10
3.777454
 20
2.671649
 30
0.0
  0
SPLINE
  5
14a
100
AcDbEntity
  8
0
 62
7
100
AcDbSpline
 70
8
 71
3
 72
8
 73
4
 74
0
 40
0
 40
0
 40
0
 40
0
 40
1
 40
1
 40
1
 40
1
 10
3.777454
 20
2.671649
 30
0.0
 10
3.776215
 20
2.701123
 30
0.0
 10
3.757245
 20
2.684300
 30
0.0
 10
3.748906
 20
2.646331
 30
0.0
  0
SPLINE
  5
14b
100
AcDbEntity
  8
0
 62
7
100
AcDbSpline
 70
8
 71
3
 72
8
 73
4
 74
0
 40
0
 40
0
 40
0
 40
0
 40
1
 40
1
 40
1
 40
1
 10
3.748906
 20
2.646331
 30
0.0
 10
3.736168
 20
2.588334
 30
0.0
 10
3.646121
 20
2.525877
 30
0.0
 10
3.591377
 20
2.537069
 30
0.0
  0
SPLINE
  5
14c
100
AcDbEntity
  8
0
 62
7
100
AcDbSpline
 70
8
 71
3
 72
8
 73
4
 74
0
 40
0
 40
0
 40
0
 40
0
 40
1
 40
1
 40
1
 40
1
 10
3.591377
 20
2.537069
 30
0.0
 10
3.575317
 20
2.540352
 30
0.0
 10
3.571737
 20
2.549881
 30
0.0
 10
3.574313
 20
2.582497
 30
0.0
  0
SPLINE
  5
14d
100
AcDbEntity
  8
0
 62
7
100
AcDbSpline
 70
8
 71
3
 72
8
 73
4
 74
0
 40
0
 40
0
 40
0
 40
0
 40
1
 40
1
 40
1
 40
1
 10
3.574313
 20
2.582497
 30
0.0
 10
3.576105
 20
2.605198
 30
0.0
 10
3.572894
 20
2.623771
 30
0.0
 10
3.567176
 20
2.623771
 30
0.0
  0
SPLINE
  5
14e
100
AcDbEntity
  8
0
 62
7
100
AcDbSpline
 70
8
 71
3
 72
8
 73
4
 74
0
 40
0
 40
0
 40
0
 40
0
 40
1
 40
1
 40
1
 40
1
 10
3.567176
 20
2.623771
 30
0.0
 10
3.552864
 20
2.623771
 30
0.0
 10
3.445040
 20
2.505576
 30
0.0
 10
3.404419
 20
2.445360
 30
0.0
  0
SPLINE
  5
14f
100
AcDbEntity
  8
0
 62
7
100
AcDbSpline
 70
8
 71
3
 72
8
 73
4
 74
0
 40
0
 40
0
 40
0
 40
0
 40
1
 40
1
 40
1
 40
1
 10
3.404419
 20
2.445360
 30
0.0
 10
3.386103
 20
2.418208
 30
0.0
 10
3.368603
 20
2.393493
 30
0.0
 10
3.365530
 20
2.390437
 30
0.0
  0
SPLINE
  5
150
100
AcDbEntity
  8
0
 62
7
100
AcDbSpline
 70
8
 71
3
 72
8
 73
4
 74
0
 40
0
 40
0
 40
0
 40
0
 40
1
 40
1
 40
1
 40
1
 10
3.365530
 20
2.390437
 30
0.0
 10
3.346829
 20
2.371841
 30
0.0
 10
3.248980
 20
2.172774
 30
0.0
 10
3.239757
 20
2.134560
 30
0.0
  0
SPLINE
  5
151
100
AcDbEntity
  8
0
 62
7
100
AcDbSpline
 70
8
 71
3
 72
8
 73
4
 74
0
 40
0
 40
0
 40
0
 40
0
 40
1
 40
1
 40
1
 40
1
 10
3.239757
 20
2.134560
 30
0.0
 10
3.234297
 20
2.111938
 30
0.0
 10
3.239936
 20
2.100972
 30
0.0
 10
3.268681
 20
2.078311
 30
0.0
  0
SPLINE
  5
152
100
AcDbEntity
  8
0
 62
7
100
AcDbSpline
 70
8
 71
3
 72
8
 73
4
 74
0
 40
0
 40
0
 40
0
 40
0
 40
1
 40
1
 40
1
 40
1
 10
3.268681
 20
2.078311
 30
0.0
 10
3.288320
 20
2.062829
 30
0.0
 10
3.309971
 20
2.046840
 30
0.0
 10
3.316796
 20
2.042781
 30
0.0
  0
SPLINE
  5
153
100
AcDbEntity
  8
0
 62
7
100
AcDbSpline
 70
8
 71
3
 72
8
 73
4
 74
0
 40
0
 40
0
 40
0
 40
0
 40
1
 40
1
 40
1
 40
1
 10
3.316796
 20
2.042781
 30
0.0
 10
3.323621
 20
2.038721
 30
0.0
 10
3.371121
 20
2.042777
 30
0.0
 10
3.422352
 20
2.051792
 30
0.0
  0
SPLINE
  5
154
100
AcDbEntity
  8
0
 62
7
100
AcDbSpline
 70
8
 71
3
 72
8
 73
4
 74
0
 40
0
 40
0
 40
0
 40
0
 40
1
 40
1
 40
1
 40
1
 10
3.422352
 20
2.051792
 30
0.0
 10
3.547345
 20
2.073789
 30
0.0
 10
3.627645
 20
2.072303
 30
0.0
 10
3.683455
 20
2.046958
 30
0.0
  0
SPLINE
  5
155
100
AcDbEntity
  8
0
 62
7
100
AcDbSpline
 70
8
 71
3
 72
8
 73
4
 74
0
 40
0
 40
0
 40
0
 40
0
 40
1
 40
1
 40
1
 40
1
 10
3.683455
 20
2.046958
 30
0.0
 10
3.733336
 20
2.024306
 30
0.0
 10
3.781608
 20
1.969109
 30
0.0
 10
3.793616
 20
1.920993
 30
0.0
  0
SPLINE
  5
156
100
AcDbEntity
  8
0
 62
7
100
AcDbSpline
 70
8
 71
3
 72
8
 73
4
 74
0
 40
0
 40
0
 40
0
 40
0
 40
1
 40
1
 40
1
 40
1
 10
3.793616
 20
1.920993
 30
0.0
 10
3.809463
 20
1.857491
 30
0.0
 10
3.856989
 20
1.905531
 30
0.0
 10
3.872156
 20
2.000382
 30
0.0
  0
SPLINE
  5
157
100
AcDbEntity
  8
0
 62
7
100
AcDbSpline
 70
8
 71
3
 72
8
 73
4
 74
0
 40
0
 40
0
 40
0
 40
0
 40
1
 40
1
 40
1
 40
1
 10
3.872156
 20
2.000382
 30
0.0
 10
3.883524
 20
2.071468
 30
0.0
 10
3.906801
 20
2.057051
 30
0.0
 10
3.933062
 20
1.962660
 30
0.0
  0
SPLINE
  5
158
100
AcDbEntity
  8
0
 62
7
100
AcDbSpline
 70
8
 71
3
 72
8
 73
4
 74
0
 40
0
 40
0
 40
0
 40
0
 40
1
 40
1
 40
1
 40
1
 10
3.933062
 20
1.962660
 30
0.0
 10
3.956197
 20
1.879507
 30
0.0
 10
3.952977
 20
1.547220
 30
0.0
 10
3.927775
 20
1.416930
 30
0.0
  0
SPLINE
  5
159
100
AcDbEntity
  8
0
 62
7
100
AcDbSpline
 70
8
 71
3
 72
8
 73
4
 74
0
 40
0
 40
0
 40
0
 40
0
 40
1
 40
1
 40
1
 40
1
 10
3.927775
 20
1.416930
 30
0.0
 10
3.908667
 20
1.318150
 30
0.0
 10
3.877611
 20
1.245993
 30
0.0
 10
3.854202
 20
1.245993
 30
0.0
  0
SPLINE
  5
15a
100
AcDbEntity
  8
0
 62
7
100
AcDbSpline
 70
8
 71
3
 72
8
 73
4
 74
0
 40
0
 40
0
 40
0
 40
0
 40
1
 40
1
 40
1
 40
1
 10
3.854202
 20
1.245993
 30
0.0
 10
3.847809
 20
1.245993
 30
0.0
 10
3.840825
 20
1.252243
 30
0.0
 10
3.838682
 20
1.259882
 30
0.0
  0
SPLINE
  5
15b
100
AcDbEntity
  8
0
 62
7
100
AcDbSpline
 70
8
 71
3
 72
8
 73
4
 74
0
 40
0
 40
0
 40
0
 40
0
 40
1
 40
1
 40
1
 40
1
 10
3.838682
 20
1.259882
 30
0.0
 10
3.812462
 20
1.353337
 30
0.0
 10
3.800618
 20
1.384867
 30
0.0
 10
3.766684
 20
1.451549
 30
0.0
  0
SPLINE
  5
15c
100
AcDbEntity
  8
0
 62
7
100
AcDbSpline
 70
8
 71
3
 72
8
 73
4
 74
0
 40
0
 40
0
 40
0
 40
0
 40
1
 40
1
 40
1
 40
1
 10
3.766684
 20
1.451549
 30
0.0
 10
3.698941
 20
1.584666
 30
0.0
 10
3.580272
 20
1.679866
 30
0.0
 10
3.482964
 20
1.679159
 30
0.0
  0
SPLINE
  5
15d
100
AcDbEntity
  8
0
 62
7
100
AcDbSpline
 70
8
 71
3
 72
8
 73
4
 74
0
 40
0
 40
0
 40
0
 40
0
 40
1
 40
1
 40
1
 40
1
 10
3.482964
 20
1.679159
 30
0.0
 10
3.423370
 20
1.678726
 30
0.0
 10
3.324207
 20
1.627108
 30
0.0
 10
3.269613
 20
1.568103
 30
0.0
  0
SPLINE
  5
15e
100
AcDbEntity
  8
0
 62
7
100
AcDbSpline
 70
8
 71
3
 72
8
 73
4
 74
0
 40
0
 40
0
 40
0
 40
0
 40
1
 40
1
 40
1
 40
1
 10
3.269613
 20
1.568103
 30
0.0
 10
3.183739
 20
1.475289
 30
0.0
 10
3.154043
 20
1.385408
 30
0.0
 10
3.176957
 20
1.287660
 30
0.0
  0
SPLINE
  5
15f
100
AcDbEntity
  8
0
 62
7
100
AcDbSpline
 70
8
 71
3
 72
8
 73
4
 74
0
 40
0
 40
0
 40
0
 40
0
 40
1
 40
1
 40
1
 40
1
 10
3.176957
 20
1.287660
 30
0.0
 10
3.184477
 20
1.255576
 30
0.0
 10
3.195501
 20
1.223181
 30
0.0
 10
3.201454
 20
1.215671
 30
0.0
  0
SPLINE
  5
160
100
AcDbEntity
  8
0
 62
7
100
AcDbSpline
 70
8
 71
3
 72
8
 73
4
 74
0
 40
0
 40
0
 40
0
 40
0
 40
1
 40
1
 40
1
 40
1
 10
3.201454
 20
1.215671
 30
0.0
 10
3.218093
 20
1.194677
 30
0.0
 10
3.250818
 20
1.217660
 30
0.0
 10
3.276799
 20
1.268587
 30
0.0
  0
SPLINE
  5
161
100
AcDbEntity
  8
0
 62
7
100
AcDbSpline
 70
8
 71
3
 72
8
 73
4
 74
0
 40
0
 40
0
 40
0
 40
0
 40
1
 40
1
 40
1
 40
1
 10
3.276799
 20
1.268587
 30
0.0
 10
3.289166
 20
1.292827
 30
0.0
 10
3.306922
 20
1.312660
 30
0.0
 10
3.316257
 20
1.312660
 30
0.0
  0
SPLINE
  5
162
100
AcDbEntity
  8
0
 62
7
100
AcDbSpline
 70
8
 71
3
 72
8
 73
4
 74
0
 40
0
 40
0
 40
0
 40
0
 40
1
 40
1
 40
1
 40
1
 10
3.316257
 20
1.312660
 30
0.0
 10
3.340112
 20
1.312660
 30
0.0
 10
3.383832
 20
1.259969
 30
0.0
 10
3.405135
 20
1.205546
 30
0.0
  0
SPLINE
  5
163
100
AcDbEntity
  8
0
 62
7
100
AcDbSpline
 70
8
 71
3
 72
8
 73
4
 74
0
 40
0
 40
0
 40
0
 40
0
 40
1
 40
1
 40
1
 40
1
 10
3.405135
 20
1.205546
 30
0.0
 10
3.427241
 20
1.149071
 30
0.0
 10
3.419206
 20
1.130621
 30
0.0
 10
3.349691
 20
1.078242
 30
0.0
  0
SPLINE
  5
164
100
AcDbEntity
  8
0
 62
7
100
AcDbSpline
 70
8
 71
3
 72
8
 73
4
 74
0
 40
0
 40
0
 40
0
 40
0
 40
1
 40
1
 40
1
 40
1
 10
3.349691
 20
1.078242
 30
0.0
 10
3.299801
 20
1.040650
 30
0.0
 10
3.288530
 20
1.020338
 30
0.0
 10
3.310146
 20
1.006979
 30
0.0
  0
SPLINE
  5
165
100
AcDbEntity
  8
0
 62
7
100
AcDbSpline
 70
8
 71
3
 72
8
 73
4
 74
0
 40
0
 40
0
 40
0
 40
0
 40
1
 40
1
 40
1
 40
1
 10
3.310146
 20
1.006979
 30
0.0
 10
3.331203
 20
0.993965
 30
0.0
 10
3.396236
 20
1.046005
 30
0.0
 10
3.449387
 20
1.118401
 30
0.0
  0
SPLINE
  5
166
100
AcDbEntity
  8
0
 62
7
100
AcDbSpline
 70
8
 71
3
 72
8
 73
4
 74
0
 40
0
 40
0
 40
0
 40
0
 40
1
 40
1
 40
1
 40
1
 10
3.449387
 20
1.118401
 30
0.0
 10
3.519523
 20
1.213931
 30
0.0
 10
3.556029
 20
1.212144
 30
0.0
 10
3.590144
 20
1.111511
 30
0.0
  0
SPLINE
  5
167
100
AcDbEntity
  8
0
 62
7
100
AcDbSpline
 70
8
 71
3
 72
8
 73
4
 74
0
 40
0
 40
0
 40
0
 40
0
 40
1
 40
1
 40
1
 40
1
 10
3.590144
 20
1.111511
 30
0.0
 10
3.613391
 20
1.042939
 30
0.0
 10
3.605741
 20
1.013865
 30
0.0
 10
3.546064
 20
0.943983
 30
0.0
  0
SPLINE
  5
168
100
AcDbEntity
  8
0
 62
7
100
AcDbSpline
 70
8
 71
3
 72
8
 73
4
 74
0
 40
0
 40
0
 40
0
 40
0
 40
1
 40
1
 40
1
 40
1
 10
3.546064
 20
0.943983
 30
0.0
 10
3.506251
 20
0.897362
 30
0.0
 10
3.499530
 20
0.884109
 30
0.0
 10
3.514239
 20
0.881220
 30
0.0
  0
SPLINE
  5
169
100
AcDbEntity
  8
0
 62
7
100
AcDbSpline
 70
8
 71
3
 72
8
 73
4
 74
0
 40
0
 40
0
 40
0
 40
0
 40
1
 40
1
 40
1
 40
1
 10
3.514239
 20
0.881220
 30
0.0
 10
3.541735
 20
0.875820
 30
0.0
 10
3.661186
 20
0.996412
 30
0.0
 10
3.684586
 20
1.053193
 30
0.0
  0
SPLINE
  5
16a
100
AcDbEntity
  8
0
 62
7
100
AcDbSpline
 70
8
 71
3
 72
8
 73
4
 74
0
 40
0
 40
0
 40
0
 40
0
 40
1
 40
1
 40
1
 40
1
 10
3.684586
 20
1.053193
 30
0.0
 10
3.695477
 20
1.079621
 30
0.0
 10
3.710318
 20
1.103533
 30
0.0
 10
3.717567
 20
1.106331
 30
0.0
  0
SPLINE
  5
16b
100
AcDbEntity
  8
0
 62
7
100
AcDbSpline
 70
8
 71
3
 72
8
 73
4
 74
0
 40
0
 40
0
 40
0
 40
0
 40
1
 40
1
 40
1
 40
1
 10
3.717567
 20
1.106331
 30
0.0
 10
3.750695
 20
1.119117
 30
0.0
 10
3.854387
 20
0.991471
 30
0.0
 10
3.854387
 20
0.937905
 30
0.0
  0
SPLINE
  5
16c
100
AcDbEntity
  8
0
 62
7
100
AcDbSpline
 70
8
 71
3
 72
8
 73
4
 74
0
 40
0
 40
0
 40
0
 40
0
 40
1
 40
1
 40
1
 40
1
 10
3.854387
 20
0.937905
 30
0.0
 10
3.854387
 20
0.923628
 30
0.0
 10
3.827097
 20
0.873357
 30
0.0
 10
3.793741
 20
0.826192
 30
0.0
  0
SPLINE
  5
16d
100
AcDbEntity
  8
0
 62
7
100
AcDbSpline
 70
8
 71
3
 72
8
 73
4
 74
0
 40
0
 40
0
 40
0
 40
0
 40
1
 40
1
 40
1
 40
1
 10
3.793741
 20
0.826192
 30
0.0
 10
3.692747
 20
0.683384
 30
0.0
 10
3.694443
 20
0.684696
 30
0.0
 10
3.582165
 20
0.662521
 30
0.0
  0
SPLINE
  5
16e
100
AcDbEntity
  8
0
 62
7
100
AcDbSpline
 70
8
 71
3
 72
8
 73
4
 74
0
 40
0
 40
0
 40
0
 40
0
 40
1
 40
1
 40
1
 40
1
 10
3.582165
 20
0.662521
 30
0.0
 10
3.527165
 20
0.651659
 30
0.0
 10
3.426624
 20
0.620996
 30
0.0
 10
3.358740
 20
0.594382
 30
0.0
  0
SPLINE
  5
16f
100
AcDbEntity
  8
0
 62
7
100
AcDbSpline
 70
8
 71
3
 72
8
 73
4
 74
0
 40
0
 40
0
 40
0
 40
0
 40
1
 40
1
 40
1
 40
1
 10
3.358740
 20
0.594382
 30
0.0
 10
3.224448
 20
0.541733
 30
0.0
 10
3.220477
 20
0.541294
 30
0.0
 10
3.100429
 20
0.565860
 30
0.0
  0
SPLINE
  5
170
100
AcDbEntity
  8
0
 62
7
100
AcDbSpline
 70
8
 71
3
 72
8
 73
4
 74
0
 40
0
 40
0
 40
0
 40
0
 40
1
 40
1
 40
1
 40
1
 10
5.076113
 20
1.729326
 30
0.0
 10
5.121315
 20
1.850115
 30
0.0
 10
5.164472
 20
2.025999
 30
0.0
 10
5.165108
 20
2.092026
 30
0.0
  0
SPLINE
  5
171
100
AcDbEntity
  8
0
 62
7
100
AcDbSpline
 70
8
 71
3
 72
8
 73
4
 74
0
 40
0
 40
0
 40
0
 40
0
 40
1
 40
1
 40
1
 40
1
 10
5.165108
 20
2.092026
 30
0.0
 10
5.165368
 20
2.119041
 30
0.0
 10
5.159622
 20
2.134760
 30
0.0
 10
5.147829
 20
2.139285
 30
0.0
  0
SPLINE
  5
172
100
AcDbEntity
  8
0
 62
7
100
AcDbSpline
 70
8
 71
3
 72
8
 73
4
 74
0
 40
0
 40
0
 40
0
 40
0
 40
1
 40
1
 40
1
 40
1
 10
5.147829
 20
2.139285
 30
0.0
 10
5.123213
 20
2.148731
 30
0.0
 10
5.113141
 20
2.140227
 30
0.0
 10
5.085789
 20
2.086906
 30
0.0
  0
SPLINE
  5
173
100
AcDbEntity
  8
0
 62
7
100
AcDbSpline
 70
8
 71
3
 72
8
 73
4
 74
0
 40
0
 40
0
 40
0
 40
0
 40
1
 40
1
 40
1
 40
1
 10
5.085789
 20
2.086906
 30
0.0
 10
5.065851
 20
2.048036
 30
0.0
 10
5.060650
 20
2.012274
 30
0.0
 10
5.053980
 20
1.868215
 30
0.0
  0
SPLINE
  5
174
100
AcDbEntity
  8
0
 62
7
100
AcDbSpline
 70
8
 71
3
 72
8
 73
4
 74
0
 40
0
 40
0
 40
0
 40
0
 40
1
 40
1
 40
1
 40
1
 10
5.053980
 20
1.868215
 30
0.0
 10
5.049594
 20
1.773493
 30
0.0
 10
5.040392
 20
1.681918
 30
0.0
 10
5.033530
 20
1.664714
 30
0.0
  0
SPLINE
  5
175
100
AcDbEntity
  8
0
 62
7
100
AcDbSpline
 70
8
 71
3
 72
8
 73
4
 74
0
 40
0
 40
0
 40
0
 40
0
 40
1
 40
1
 40
1
 40
1
 10
5.033530
 20
1.664714
 30
0.0
 10
5.026668
 20
1.647511
 30
0.0
 10
5.021054
 20
1.630148
 30
0.0
 10
5.021054
 20
1.626131
 30
0.0
  0
SPLINE
  5
176
100
AcDbEntity
  8
0
 62
7
100
AcDbSpline
 70
8
 71
3
 72
8
 73
4
 74
0
 40
0
 40
0
 40
0
 40
0
 40
1
 40
1
 40
1
 40
1
 10
5.021054
 20
1.626131
 30
0.0
 10
5.021054
 20
1.608048
 30
0.0
 10
5.053450
 20
1.668768
 30
0.0
 10
5.076113
 20
1.729326
 30
0.0
  0
LWPOLYLINE
  5
177
100
AcDbEntity
  8
0
 62
7
100
AcDbPolyline
 90
2
 70
1
 10
3.100429
 20
0.565860
 30
0.0
 10
3.100429
 20
0.565860
 30
0.0
  0
SPLINE
  5
178
100
AcDbEntity
  8
0
 62
7
100
AcDbSpline
 70
8
 71
3
 72
8
 73
4
 74
0
 40
0
 40
0
 40
0
 40
0
 40
1
 40
1
 40
1
 40
1
 10
4.844613
 20
1.798248
 30
0.0
 10
4.883506
 20
1.882692
 30
0.0
 10
4.935963
 20
2.158295
 30
0.0
 10
4.936997
 20
2.283628
 30
0.0
  0
SPLINE
  5
179
100
AcDbEntity
  8
0
 62
7
100
AcDbSpline
 70
8
 71
3
 72
8
 73
4
 74
0
 40
0
 40
0
 40
0
 40
0
 40
1
 40
1
 40
1
 40
1
 10
4.936997
 20
2.283628
 30
0.0
 10
4.937683
 20
2.366684
 30
0.0
 10
4.936123
 20
2.372460
 30
0.0
 10
4.907135
 20
2.394154
 30
0.0
  0
SPLINE
  5
17a
100
AcDbEntity
  8
0
 62
7
100
AcDbSpline
 70
8
 71
3
 72
8
 73
4
 74
0
 40
0
 40
0
 40
0
 40
0
 40
1
 40
1
 40
1
 40
1
 10
4.907135
 20
2.394154
 30
0.0
 10
4.852252
 20
2.435227
 30
0.0
 10
4.848431
 20
2.417699
 30
0.0
 10
4.852295
 20
2.142586
 30
0.0
  0
SPLINE
  5
17b
100
AcDbEntity
  8
0
 62
7
100
AcDbSpline
 70
8
 71
3
 72
8
 73
4
 74
0
 40
0
 40
0
 40
0
 40
0
 40
1
 40
1
 40
1
 40
1
 10
4.852295
 20
2.142586
 30
0.0
 10
4.855443
 20
1.918383
 30
0.0
 10
4.853664
 20
1.889271
 30
0.0
 10
4.832701
 20
1.821955
 30
0.0
  0
SPLINE
  5
17c
100
AcDbEntity
  8
0
 62
7
100
AcDbSpline
 70
8
 71
3
 72
8
 73
4
 74
0
 40
0
 40
0
 40
0
 40
0
 40
1
 40
1
 40
1
 40
1
 10
4.832701
 20
1.821955
 30
0.0
 10
4.817055
 20
1.771714
 30
0.0
 10
4.797192
 20
1.735465
 30
0.0
 10
4.770905
 20
1.709177
 30
0.0
  0
SPLINE
  5
17d
100
AcDbEntity
  8
0
 62
7
100
AcDbSpline
 70
8
 71
3
 72
8
 73
4
 74
0
 40
0
 40
0
 40
0
 40
0
 40
1
 40
1
 40
1
 40
1
 10
4.770905
 20
1.709177
 30
0.0
 10
4.719503
 20
1.657775
 30
0.0
 10
4.720900
 20
1.642055
 30
0.0
 10
4.772517
 20
1.691036
 30
0.0
  0
SPLINE
  5
17e
100
AcDbEntity
  8
0
 62
7
100
AcDbSpline
 70
8
 71
3
 72
8
 73
4
 74
0
 40
0
 40
0
 40
0
 40
0
 40
1
 40
1
 40
1
 40
1
 10
4.772517
 20
1.691036
 30
0.0
 10
4.794710
 20
1.712095
 30
0.0
 10
4.827153
 20
1.760341
 30
0.0
 10
4.844613
 20
1.798248
 30
0.0
  0
LWPOLYLINE
  5
17f
100
AcDbEntity
  8
0
 62
7
100
AcDbPolyline
 90
2
 70
1
 10
5.076113
 20
1.729326
 30
0.0
 10
5.076113
 20
1.729326
 30
0.0
  0
SPLINE
  5
180
100
AcDbEntity
  8
0
 62
7
100
AcDbSpline
 70
8
 71
3
 72
8
 73
4
 74
0
 40
0
 40
0
 40
0
 40
0
 40
1
 40
1
 40
1
 40
1
 10
3.099923
 20
2.279256
 30
0.0
 10
3.203174
 20
2.392409
 30
0.0
 10
3.243276
 20
2.449512
 30
0.0
 10
3.243276
 20
2.483384
 30
0.0
  0
SPLINE
  5
181
100
AcDbEntity
  8
0
 62
7
100
AcDbSpline
 70
8
 71
3
 72
8
 73
4
 74
0
 40
0
 40
0
 40
0
 40
0
 40
1
 40
1
 40
1
 40
1
 10
3.243276
 20
2.483384
 30
0.0
 10
3.243276
 20
2.492333
 30
0.0
 10
3.267026
 20
2.517210
 30
0.0
 10
3.296054
 20
2.538665
 30
0.0
  0
SPLINE
  5
182
100
AcDbEntity
  8
0
 62
7
100
AcDbSpline
 70
8
 71
3
 72
8
 73
4
 74
0
 40
0
 40
0
 40
0
 40
0
 40
1
 40
1
 40
1
 40
1
 10
3.296054
 20
2.538665
 30
0.0
 10
3.325082
 20
2.560120
 30
0.0
 10
3.371332
 20
2.601424
 30
0.0
 10
3.398832
 20
2.630453
 30
0.0
  0
SPLINE
  5
183
100
AcDbEntity
  8
0
 62
7
100
AcDbSpline
 70
8
 71
3
 72
8
 73
4
 74
0
 40
0
 40
0
 40
0
 40
0
 40
1
 40
1
 40
1
 40
1
 10
3.398832
 20
2.630453
 30
0.0
 10
3.448832
 20
2.683231
 30
0.0
 10
3.448832
 20
2.683231
 30
0.0
 10
3.398832
 20
2.645742
 30
0.0
  0
SPLINE
  5
184
100
AcDbEntity
  8
0
 62
7
100
AcDbSpline
 70
8
 71
3
 72
8
 73
4
 74
0
 40
0
 40
0
 40
0
 40
0
 40
1
 40
1
 40
1
 40
1
 10
3.398832
 20
2.645742
 30
0.0
 10
3.259108
 20
2.540980
 30
0.0
 10
3.079353
 20
2.336740
 30
0.0
 10
2.961635
 20
2.148992
 30
0.0
  0
SPLINE
  5
185
100
AcDbEntity
  8
0
 62
7
100
AcDbSpline
 70
8
 71
3
 72
8
 73
4
 74
0
 40
0
 40
0
 40
0
 40
0
 40
1
 40
1
 40
1
 40
1
 10
2.961635
 20
2.148992
 30
0.0
 10
2.923647
 20
2.088405
 30
0.0
 10
2.924577
 20
2.073745
 30
0.0
 10
2.963243
 20
2.123631
 30
0.0
  0
SPLINE
  5
186
100
AcDbEntity
  8
0
 62
7
100
AcDbSpline
 70
8
 71
3
 72
8
 73
4
 74
0
 40
0
 40
0
 40
0
 40
0
 40
1
 40
1
 40
1
 40
1
 10
2.963243
 20
2.123631
 30
0.0
 10
2.979761
 20
2.144943
 30
0.0
 10
3.041268
 20
2.214974
 30
0.0
 10
3.099923
 20
2.279256
 30
0.0
  0
LWPOLYLINE
  5
187
100
AcDbEntity
  8
0
 62
7
100
AcDbPolyline
 90
2
 70
1
 10
4.844613
 20
1.798248
 30
0.0
 10
4.844613
 20
1.798248
 30
0.0
  0
SPLINE
  5
188
100
AcDbEntity
  8
0
 62
7
100
AcDbSpline
 70
8
 71
3
 72
8
 73
4
 74
0
 40
0
 40
0
 40
0
 40
0
 40
1
 40
1
 40
1
 40
1
 10
3.204387
 20
2.653590
 30
0.0
 10
3.241054
 20
2.673602
 30
0.0
 10
3.309038
 20
2.702405
 30
0.0
 10
3.355462
 20
2.717597
 30
0.0
  0
SPLINE
  5
189
100
AcDbEntity
  8
0
 62
7
100
AcDbSpline
 70
8
 71
3
 72
8
 73
4
 74
0
 40
0
 40
0
 40
0
 40
0
 40
1
 40
1
 40
1
 40
1
 10
3.355462
 20
2.717597
 30
0.0
 10
3.436296
 20
2.744050
 30
0.0
 10
3.453470
 20
2.745353
 30
0.0
 10
3.761018
 20
2.748384
 30
0.0
  0
SPLINE
  5
18a
100
AcDbEntity
  8
0
 62
7
100
AcDbSpline
 70
8
 71
3
 72
8
 73
4
 74
0
 40
0
 40
0
 40
0
 40
0
 40
1
 40
1
 40
1
 40
1
 10
3.761018
 20
2.748384
 30
0.0
 10
3.937649
 20
2.750124
 30
0.0
 10
4.117165
 20
2.747239
 30
0.0
 10
4.159943
 20
2.741971
 30
0.0
  0
SPLINE
  5
18b
100
AcDbEntity
  8
0
 62
7
100
AcDbSpline
 70
8
 71
3
 72
8
 73
4
 74
0
 40
0
 40
0
 40
0
 40
0
 40
1
 40
1
 40
1
 40
1
 10
4.159943
 20
2.741971
 30
0.0
 10
4.271326
 20
2.728256
 30
0.0
 10
4.239642
 20
2.747207
 30
0.0
 10
4.087721
 20
2.785167
 30
0.0
  0
SPLINE
  5
18c
100
AcDbEntity
  8
0
 62
7
100
AcDbSpline
 70
8
 71
3
 72
8
 73
4
 74
0
 40
0
 40
0
 40
0
 40
0
 40
1
 40
1
 40
1
 40
1
 10
4.087721
 20
2.785167
 30
0.0
 10
3.960698
 20
2.816906
 30
0.0
 10
3.957907
 20
2.817094
 30
0.0
 10
3.615499
 20
2.817023
 30
0.0
  0
SPLINE
  5
18d
100
AcDbEntity
  8
0
 62
7
100
AcDbSpline
 70
8
 71
3
 72
8
 73
4
 74
0
 40
0
 40
0
 40
0
 40
0
 40
1
 40
1
 40
1
 40
1
 10
3.615499
 20
2.817023
 30
0.0
 10
3.371995
 20
2.816967
 30
0.0
 10
3.249889
 20
2.812605
 30
0.0
 10
3.198832
 20
2.802119
 30
0.0
  0
SPLINE
  5
18e
100
AcDbEntity
  8
0
 62
7
100
AcDbSpline
 70
8
 71
3
 72
8
 73
4
 74
0
 40
0
 40
0
 40
0
 40
0
 40
1
 40
1
 40
1
 40
1
 10
3.198832
 20
2.802119
 30
0.0
 10
3.110894
 20
2.784060
 30
0.0
 10
3.092643
 20
2.771444
 30
0.0
 10
3.156387
 20
2.772780
 30
0.0
  0
SPLINE
  5
18f
100
AcDbEntity
  8
0
 62
7
100
AcDbSpline
 70
8
 71
3
 72
8
 73
4
 74
0
 40
0
 40
0
 40
0
 40
0
 40
1
 40
1
 40
1
 40
1
 10
3.156387
 20
2.772780
 30
0.0
 10
3.192328
 20
2.773533
 30
0.0
 10
3.204613
 20
2.769276
 30
0.0
 10
3.207493
 20
2.755072
 30
0.0
  0
SPLINE
  5
190
100
AcDbEntity
  8
0
 62
7
100
AcDbSpline
 70
8
 71
3
 72
8
 73
4
 74
0
 40
0
 40
0
 40
0
 40
0
 40
1
 40
1
 40
1
 40
1
 10
3.207493
 20
2.755072
 30
0.0
 10
3.211991
 20
2.732892
 30
0.0
 10
3.147484
 20
2.665570
 30
0.0
 10
3.034943
 20
2.574991
 30
0.0
  0
SPLINE
  5
191
100
AcDbEntity
  8
0
 62
7
100
AcDbSpline
 70
8
 71
3
 72
8
 73
4
 74
0
 40
0
 40
0
 40
0
 40
0
 40
1
 40
1
 40
1
 40
1
 10
3.034943
 20
2.574991
 30
0.0
 10
2.990637
 20
2.539332
 30
0.0
 10
2.954387
 20
2.508186
 30
0.0
 10
2.954387
 20
2.505776
 30
0.0
  0
SPLINE
  5
192
100
AcDbEntity
  8
0
 62
7
100
AcDbSpline
 70
8
 71
3
 72
8
 73
4
 74
0
 40
0
 40
0
 40
0
 40
0
 40
1
 40
1
 40
1
 40
1
 10
2.954387
 20
2.505776
 30
0.0
 10
2.954387
 20
2.503367
 30
0.0
 10
2.995637
 20
2.527453
 30
0.0
 10
3.046054
 20
2.559300
 30
0.0
  0
SPLINE
  5
193
100
AcDbEntity
  8
0
 62
7
100
AcDbSpline
 70
8
 71
3
 72
8
 73
4
 74
0
 40
0
 40
0
 40
0
 40
0
 40
1
 40
1
 40
1
 40
1
 10
3.046054
 20
2.559300
 30
0.0
 10
3.096471
 20
2.591148
 30
0.0
 10
3.167721
 20
2.633578
 30
0.0
 10
3.204387
 20
2.653590
 30
0.0
  0
LWPOLYLINE
  5
194
100
AcDbEntity
  8
0
 62
7
100
AcDbPolyline
 90
2
 70
1
 10
3.099923
 20
2.279256
 30
0.0
 10
3.099923
 20
2.279256
 30
0.0
  0
SPLINE
  5
195
100
AcDbEntity
  8
0
 62
7
100
AcDbSpline
 70
8
 71
3
 72
8
 73
4
 74
0
 40
0
 40
0
 40
0
 40
0
 40
1
 40
1
 40
1
 40
1
 10
2.580135
 20
2.651549
 30
0.0
 10
2.616101
 20
2.723246
 30
0.0
 10
2.626856
 20
2.768682
 30
0.0
 10
2.622669
 20
2.831233
 30
0.0
  0
SPLINE
  5
196
100
AcDbEntity
  8
0
 62
7
100
AcDbSpline
 70
8
 71
3
 72
8
 73
4
 74
0
 40
0
 40
0
 40
0
 40
0
 40
1
 40
1
 40
1
 40
1
 10
2.622669
 20
2.831233
 30
0.0
 10
2.621770
 20
2.844665
 30
0.0
 10
2.586003
 20
2.891462
 30
0.0
 10
2.541992
 20
2.936789
 30
0.0
  0
SPLINE
  5
197
100
AcDbEntity
  8
0
 62
7
100
AcDbSpline
 70
8
 71
3
 72
8
 73
4
 74
0
 40
0
 40
0
 40
0
 40
0
 40
1
 40
1
 40
1
 40
1
 10
2.541992
 20
2.936789
 30
0.0
 10
2.444305
 20
3.037398
 30
0.0
 10
2.404256
 20
3.115429
 30
0.0
 10
2.413962
 20
3.186243
 30
0.0
  0
SPLINE
  5
198
100
AcDbEntity
  8
0
 62
7
100
AcDbSpline
 70
8
 71
3
 72
8
 73
4
 74
0
 40
0
 40
0
 40
0
 40
0
 40
1
 40
1
 40
1
 40
1
 10
2.413962
 20
3.186243
 30
0.0
 10
2.421889
 20
3.244072
 30
0.0
 10
2.445446
 20
3.293302
 30
0.0
 10
2.489262
 20
3.343602
 30
0.0
  0
SPLINE
  5
199
100
AcDbEntity
  8
0
 62
7
100
AcDbSpline
 70
8
 71
3
 72
8
 73
4
 74
0
 40
0
 40
0
 40
0
 40
0
 40
1
 40
1
 40
1
 40
1
 10
2.489262
 20
3.343602
 30
0.0
 10
2.542600
 20
3.404834
 30
0.0
 10
2.530480
 20
3.419664
 30
0.0
 10
2.466547
 20
3.371396
 30
0.0
  0
SPLINE
  5
19a
100
AcDbEntity
  8
0
 62
7
100
AcDbSpline
 70
8
 71
3
 72
8
 73
4
 74
0
 40
0
 40
0
 40
0
 40
0
 40
1
 40
1
 40
1
 40
1
 10
2.466547
 20
3.371396
 30
0.0
 10
2.412190
 20
3.330356
 30
0.0
 10
2.399766
 20
3.317588
 30
0.0
 10
2.351779
 20
3.253452
 30
0.0
  0
SPLINE
  5
19b
100
AcDbEntity
  8
0
 62
7
100
AcDbSpline
 70
8
 71
3
 72
8
 73
4
 74
0
 40
0
 40
0
 40
0
 40
0
 40
1
 40
1
 40
1
 40
1
 10
2.351779
 20
3.253452
 30
0.0
 10
2.274133
 20
3.149675
 30
0.0
 10
2.284355
 20
3.087743
 30
0.0
 10
2.394510
 20
2.994567
 30
0.0
  0
SPLINE
  5
19c
100
AcDbEntity
  8
0
 62
7
100
AcDbSpline
 70
8
 71
3
 72
8
 73
4
 74
0
 40
0
 40
0
 40
0
 40
0
 40
1
 40
1
 40
1
 40
1
 10
2.394510
 20
2.994567
 30
0.0
 10
2.563056
 20
2.851999
 30
0.0
 10
2.587721
 20
2.820712
 30
0.0
 10
2.587721
 20
2.749472
 30
0.0
  0
SPLINE
  5
19d
100
AcDbEntity
  8
0
 62
7
100
AcDbSpline
 70
8
 71
3
 72
8
 73
4
 74
0
 40
0
 40
0
 40
0
 40
0
 40
1
 40
1
 40
1
 40
1
 10
2.587721
 20
2.749472
 30
0.0
 10
2.587721
 20
2.728819
 30
0.0
 10
2.575868
 20
2.688337
 30
0.0
 10
2.561382
 20
2.659513
 30
0.0
  0
SPLINE
  5
19e
100
AcDbEntity
  8
0
 62
7
100
AcDbSpline
 70
8
 71
3
 72
8
 73
4
 74
0
 40
0
 40
0
 40
0
 40
0
 40
1
 40
1
 40
1
 40
1
 10
2.561382
 20
2.659513
 30
0.0
 10
2.546896
 20
2.630688
 30
0.0
 10
2.531334
 20
2.594604
 30
0.0
 10
2.526800
 20
2.579326
 30
0.0
  0
SPLINE
  5
19f
100
AcDbEntity
  8
0
 62
7
100
AcDbSpline
 70
8
 71
3
 72
8
 73
4
 74
0
 40
0
 40
0
 40
0
 40
0
 40
1
 40
1
 40
1
 40
1
 10
2.526800
 20
2.579326
 30
0.0
 10
2.513236
 20
2.533619
 30
0.0
 10
2.537371
 20
2.566301
 30
0.0
 10
2.580135
 20
2.651549
 30
0.0
  0
LWPOLYLINE
  5
1a0
100
AcDbEntity
  8
0
 62
7
100
AcDbPolyline
 90
2
 70
1
 10
3.204387
 20
2.653590
 30
0.0
 10
3.204387
 20
2.653590
 30
0.0
  0
SPLINE
  5
1a1
100
AcDbEntity
  8
0
 62
7
100
AcDbSpline
 70
8
 71
3
 72
8
 73
4
 74
0
 40
0
 40
0
 40
0
 40
0
 40
1
 40
1
 40
1
 40
1
 10
4.046725
 20
3.235767
 30
0.0
 10
3.996302
 20
3.336842
 30
0.0
 10
3.922978
 20
3.368215
 30
0.0
 10
3.737174
 20
3.368215
 30
0.0
  0
SPLINE
  5
1a2
100
AcDbEntity
  8
0
 62
7
100
AcDbSpline
 70
8
 71
3
 72
8
 73
4
 74
0
 40
0
 40
0
 40
0
 40
0
 40
1
 40
1
 40
1
 40
1
 10
3.737174
 20
3.368215
 30
0.0
 10
3.637230
 20
3.368215
 30
0.0
 10
3.601376
 20
3.356130
 30
0.0
 10
3.658664
 20
3.341751
 30
0.0
  0
SPLINE
  5
1a3
100
AcDbEntity
  8
0
 62
7
100
AcDbSpline
 70
8
 71
3
 72
8
 73
4
 74
0
 40
0
 40
0
 40
0
 40
0
 40
1
 40
1
 40
1
 40
1
 10
3.658664
 20
3.341751
 30
0.0
 10
3.682897
 20
3.335669
 30
0.0
 10
3.709606
 20
3.319097
 30
0.0
 10
3.836494
 20
3.231413
 30
0.0
  0
SPLINE
  5
1a4
100
AcDbEntity
  8
0
 62
7
100
AcDbSpline
 70
8
 71
3
 72
8
 73
4
 74
0
 40
0
 40
0
 40
0
 40
0
 40
1
 40
1
 40
1
 40
1
 10
3.836494
 20
3.231413
 30
0.0
 10
3.874886
 20
3.204883
 30
0.0
 10
3.889986
 20
3.201548
 30
0.0
 10
3.971753
 20
3.201548
 30
0.0
  0
SPLINE
  5
1a5
100
AcDbEntity
  8
0
 62
7
100
AcDbSpline
 70
8
 71
3
 72
8
 73
4
 74
0
 40
0
 40
0
 40
0
 40
0
 40
1
 40
1
 40
1
 40
1
 10
3.971753
 20
3.201548
 30
0.0
 10
4.063795
 20
3.201548
 30
0.0
 10
4.063795
 20
3.201548
 30
0.0
 10
4.046725
 20
3.235767
 30
0.0
  0
LWPOLYLINE
  5
1a6
100
AcDbEntity
  8
0
 62
7
100
AcDbPolyline
 90
2
 70
1
 10
2.580135
 20
2.651549
 30
0.0
 10
2.580135
 20
2.651549
 30
0.0
  0
SPLINE
  5
1a7
100
AcDbEntity
  8
0
 62
7
100
AcDbSpline
 70
8
 71
3
 72
8
 73
4
 74
0
 40
0
 40
0
 40
0
 40
0
 40
1
 40
1
 40
1
 40
1
 10
2.271054
 20
3.416902
 30
0.0
 10
2.362735
 20
3.434969
 30
0.0
 10
2.380483
 20
3.441625
 30
0.0
 10
2.520257
 20
3.510360
 30
0.0
  0
SPLINE
  5
1a8
100
AcDbEntity
  8
0
 62
7
100
AcDbSpline
 70
8
 71
3
 72
8
 73
4
 74
0
 40
0
 40
0
 40
0
 40
0
 40
1
 40
1
 40
1
 40
1
 10
2.520257
 20
3.510360
 30
0.0
 10
2.626610
 20
3.562660
 30
0.0
 10
2.626610
 20
3.562660
 30
0.0
 10
2.554387
 20
3.566099
 30
0.0
  0
SPLINE
  5
1a9
100
AcDbEntity
  8
0
 62
7
100
AcDbSpline
 70
8
 71
3
 72
8
 73
4
 74
0
 40
0
 40
0
 40
0
 40
0
 40
1
 40
1
 40
1
 40
1
 10
2.554387
 20
3.566099
 30
0.0
 10
2.394795
 20
3.573699
 30
0.0
 10
2.199806
 20
3.536871
 30
0.0
 10
1.990499
 20
3.459596
 30
0.0
  0
SPLINE
  5
1aa
100
AcDbEntity
  8
0
 62
7
100
AcDbSpline
 70
8
 71
3
 72
8
 73
4
 74
0
 40
0
 40
0
 40
0
 40
0
 40
1
 40
1
 40
1
 40
1
 10
1.990499
 20
3.459596
 30
0.0
 10
1.911642
 20
3.430482
 30
0.0
 10
1.885215
 20
3.411609
 30
0.0
 10
1.934943
 20
3.419919
 30
0.0
  0
SPLINE
  5
1ab
100
AcDbEntity
  8
0
 62
7
100
AcDbSpline
 70
8
 71
3
 72
8
 73
4
 74
0
 40
0
 40
0
 40
0
 40
0
 40
1
 40
1
 40
1
 40
1
 10
1.934943
 20
3.419919
 30
0.0
 10
1.954905
 20
3.423255
 30
0.0
 10
2.165625
 20
3.409248
 30
0.0
 10
2.187721
 20
3.403116
 30
0.0
  0
SPLINE
  5
1ac
100
AcDbEntity
  8
0
 62
7
100
AcDbSpline
 70
8
 71
3
 72
8
 73
4
 74
0
 40
0
 40
0
 40
0
 40
0
 40
1
 40
1
 40
1
 40
1
 10
2.187721
 20
3.403116
 30
0.0
 10
2.190776
 20
3.402268
 30
0.0
 10
2.228276
 20
3.408472
 30
0.0
 10
2.271054
 20
3.416902
 30
0.0
  0
LWPOLYLINE
  5
1ad
100
AcDbEntity
  8
0
 62
7
100
AcDbPolyline
 90
2
 70
1
 10
4.046725
 20
3.235767
 30
0.0
 10
4.046725
 20
3.235767
 30
0.0
  0
LWPOLYLINE
  5
1ae
100
AcDbEntity
  8
0
 62
7
100
AcDbPolyline
 90
2
 70
1
 10
2.271054
 20
3.416902
 30
0.0
 10
2.271054
 20
3.416902
 30
0.0
  0
ENDSEC
  0
SECTION
  2
OBJECTS
  0
DICTIONARY
  5
C
330
0
100
AcDbDictionary
  3
ACAD_GROUP
350
D
  3
ACAD_MLINESTYLE
350
17
  0
DICTIONARY
  5
D
330
C
100
AcDbDictionary
  0
DICTIONARY
  5
1A
330
C
100
AcDbDictionary
  0
DICTIONARY
  5
17
330
C
100
AcDbDictionary
  3
STANDARD
350
18
  0
DICTIONARY
  5
19
330
C
100
AcDbDictionary
  0
ENDSEC
  0
EOF
